<svg width="76" height="76" viewBox="0 0 76 76" fill="none" xmlns="http://www.w3.org/2000/svg">
<g clip-path="url(#clip0_5_20)">
<path opacity="0.06" d="M55.26 -0.265625H21.3025C9.6928 -0.265625 0.28125 9.14592 0.28125 20.7557V54.7131C0.28125 66.3228 9.6928 75.7344 21.3025 75.7344H55.26C66.8697 75.7344 76.2812 66.3228 76.2812 54.7131V20.7557C76.2812 9.14592 66.8697 -0.265625 55.26 -0.265625Z" fill="#F6CA4F"/>
<path d="M38.2813 63.6132C52.5738 63.6132 64.16 52.0269 64.16 37.7344C64.16 23.442 52.5738 11.8557 38.2813 11.8557C23.9889 11.8557 12.4026 23.442 12.4026 37.7344C12.4026 52.0269 23.9889 63.6132 38.2813 63.6132Z" fill="#FF6D35"/>
<path d="M47.8318 49.4073H28.7307C26.3961 49.4073 24.486 47.4972 24.486 45.1626V30.3062C24.486 27.9716 26.3961 26.0615 28.7307 26.0615H47.8318C50.1663 26.0615 52.0764 27.9716 52.0764 30.3062V45.1626C52.0764 47.4972 50.1663 49.4073 47.8318 49.4073Z" stroke="white" stroke-width="2" stroke-miterlimit="10" stroke-linecap="round" stroke-linejoin="round"/>
<path d="M24.486 31.3673L38.2812 39.8567L52.0764 31.3673" stroke="white" stroke-width="2" stroke-miterlimit="10" stroke-linecap="round" stroke-linejoin="round"/>
</g>
<defs>
<clipPath id="clip0_5_20">
<rect width="76" height="76" fill="white" transform="translate(0.28125 -0.265625)"/>
</clipPath>
</defs>
</svg>
