<svg width="76" height="76" viewBox="0 0 76 76" fill="none" xmlns="http://www.w3.org/2000/svg">
<g clip-path="url(#clip0_1_242)">
<path opacity="0.06" d="M54.9605 0.265625H21.1846C9.63694 0.265625 0.275696 9.62687 0.275696 21.1745V54.9505C0.275696 66.4981 9.63694 75.8594 21.1846 75.8594H54.9605C66.5082 75.8594 75.8694 66.4981 75.8694 54.9505V21.1745C75.8694 9.62687 66.5082 0.265625 54.9605 0.265625Z" fill="#FF6F35"/>
<path d="M38.0727 63.803C52.2887 63.803 63.8131 52.2786 63.8131 38.0626C63.8131 23.8466 52.2887 12.3222 38.0727 12.3222C23.8566 12.3222 12.3323 23.8466 12.3323 38.0626C12.3323 52.2786 23.8566 63.803 38.0727 63.803Z" fill="#FFCD1D"/>
<path d="M38.0726 21.8447V54.2803" stroke="white" stroke-width="2.41257" stroke-linecap="round" stroke-linejoin="round"/>
<path d="M45.4443 27.7421H34.3867C33.0182 27.7421 31.7057 28.2858 30.7379 29.2535C29.7701 30.2212 29.2265 31.5337 29.2265 32.9023C29.2265 34.2709 29.7701 35.5834 30.7379 36.5511C31.7057 37.5188 33.0182 38.0625 34.3867 38.0625H41.7584C43.127 38.0625 44.4395 38.6062 45.4073 39.5739C46.375 40.5416 46.9187 41.8541 46.9187 43.2228C46.9187 44.5913 46.375 45.9038 45.4073 46.8715C44.4395 47.8393 43.127 48.3829 41.7584 48.3829H29.2265" stroke="white" stroke-width="2.41257" stroke-linecap="round" stroke-linejoin="round"/>
</g>
<defs>
<clipPath id="clip0_1_242">
<rect width="75.5938" height="75.5938" fill="white" transform="translate(0.275696 0.265625)"/>
</clipPath>
</defs>
</svg>
