<svg width="76" height="77" viewBox="0 0 76 77" fill="none" xmlns="http://www.w3.org/2000/svg">
<g clip-path="url(#clip0_1_253)">
<g clip-path="url(#clip1_1_253)">
<path opacity="0.06" d="M54.9605 0.859375H21.1846C9.63694 0.859375 0.275696 10.2206 0.275696 21.7683V55.5442C0.275696 67.0919 9.63694 76.4531 21.1846 76.4531H54.9605C66.5082 76.4531 75.8694 67.0919 75.8694 55.5442V21.7683C75.8694 10.2206 66.5082 0.859375 54.9605 0.859375Z" fill="#5CC97B"/>
<path d="M38.0727 64.3967C52.2887 64.3967 63.8131 52.8723 63.8131 38.6563C63.8131 24.4402 52.2887 12.9159 38.0727 12.9159C23.8566 12.9159 12.3323 24.4402 12.3323 38.6563C12.3323 52.8723 23.8566 64.3967 38.0727 64.3967Z" fill="#5CC97B"/>
<path fill-rule="evenodd" clip-rule="evenodd" d="M40.8296 45.0292C38.9865 46.2479 36.7568 46.9189 34.381 46.8208C28.3719 46.5726 23.7015 41.4995 23.9496 35.4901C24.1978 29.4807 29.2706 24.8111 35.2798 25.0593C41.2879 25.3073 45.9594 30.3794 45.7112 36.3889C45.6237 38.5072 44.9366 40.4592 43.8203 42.088L51.157 49.2115C52.0621 50.1929 52.0297 51.7099 51.0997 52.6499L51.0569 52.6893L51.0117 52.7284C50.0008 53.5779 48.4862 53.4868 47.5819 52.5046L40.8296 45.0292ZM34.4848 44.309C29.8625 44.1181 26.2697 40.2157 26.4606 35.5935C26.6515 30.9713 30.5539 27.3785 35.1761 27.5694C39.7983 27.7603 43.3912 31.6626 43.2003 36.2848C43.0094 40.9071 39.107 44.4999 34.4848 44.309Z" fill="white"/>
</g>
</g>
<defs>
<clipPath id="clip0_1_253">
<rect width="75.5938" height="75.5938" fill="white" transform="translate(0.275696 0.859375)"/>
</clipPath>
<clipPath id="clip1_1_253">
<rect width="75.5938" height="75.5938" fill="white" transform="translate(0.275696 0.859375)"/>
</clipPath>
</defs>
</svg>
