<svg width="160" height="30" viewBox="0 0 160 30" fill="none" xmlns="http://www.w3.org/2000/svg">
<path d="M4.87562 4.02996C7.0298 2.06809 9.9549 0.92296 12.9195 0.780528C13.9342 0.780528 14.9518 0.786303 15.9665 0.777588C15.9147 1.81525 15.9665 2.85575 15.936 3.89336C15.7928 6.21276 14.8939 8.47981 13.3796 10.2993C11.4113 12.7466 8.40095 14.3887 5.20469 14.8131C3.80919 15.0281 2.39232 14.8915 0.987735 14.9293C1.0121 13.787 0.935918 12.642 1.03037 11.5026C1.30463 8.67747 2.70317 5.97152 4.87562 4.02996Z" fill="#81818B"/>
<path d="M16.9061 0.777588C17.9939 0.789243 19.0816 0.771813 20.1724 0.783416C22.8872 0.966483 25.5655 1.96052 27.6098 3.68415C29.8645 5.52973 31.4096 8.16885 31.8054 10.9882C31.9792 12.296 31.8695 13.6185 31.9367 14.9322C30.9859 14.9293 30.0383 14.9264 29.0875 14.9322C26.7507 14.8712 24.4533 14.1504 22.4972 12.9355C21.5953 12.3193 20.669 11.6944 19.9926 10.8399C18.5088 9.25875 17.5002 7.27362 17.1194 5.18097C16.8329 3.72767 16.9487 2.24538 16.9061 0.777588Z" fill="#81818B"/>
<path d="M0.989776 15.7634C1.95567 15.8157 2.92461 15.7197 3.88741 15.8215C8.00992 15.9057 12.0106 18.1147 14.1464 21.4775C15.3714 23.3609 16.0295 25.5933 15.9442 27.8106C15.9411 28.5378 15.9533 29.2612 15.932 29.9852C14.4024 29.9411 12.8576 30.0603 11.3432 29.7783C7.97947 29.2381 4.88685 27.3282 3.0251 24.602C1.61437 22.6198 0.910553 20.1987 0.983686 17.8066C0.983686 17.1235 0.983686 16.4435 0.989776 15.7634Z" fill="#81818B"/>
<path d="M26.7884 16.0714C28.446 15.7196 30.1548 15.7778 31.8401 15.7778L31.9136 15.8476C31.8768 17.3677 32.0018 18.9052 31.6821 20.4078C31.0085 23.7794 28.6686 26.7903 25.5209 28.4441C23.5617 29.4849 21.3131 29.9963 19.0736 29.9732C18.3576 29.9763 17.6385 29.9616 16.9225 29.9816C16.9225 28.7232 16.8676 27.4592 17.0169 26.2061C17.3643 23.1748 19.0828 20.3526 21.5538 18.446C23.0834 17.295 24.8811 16.4608 26.7884 16.0714Z" fill="#81818B"/>
<path d="M44.4217 24.3554C44.4217 24.8672 44.2359 25.3 43.8652 25.6543C43.514 25.989 43.0704 26.1563 42.5343 26.1563C42.0183 26.1563 41.5851 25.989 41.2344 25.6543C40.8837 25.3 40.7084 24.8672 40.7084 24.3554V6.11185C40.7084 5.60013 40.8837 5.17703 41.2344 4.8425C41.6056 4.48823 42.0597 4.3111 42.5963 4.3111C43.1323 4.3111 43.5654 4.48823 43.8957 4.8425C44.2464 5.17703 44.4217 5.60013 44.4217 6.11185V24.3554Z" fill="#81818B"/>
<path d="M59.3275 10.3629C59.8635 10.3629 60.3072 10.5399 60.6584 10.8942C61.0086 11.2287 61.1839 11.6519 61.1839 12.1635V19.6618C61.1839 21.7478 60.5754 23.401 59.3585 24.6212C58.141 25.8414 56.3875 26.4512 54.0969 26.4512C51.8074 26.4512 50.0534 25.8414 48.8364 24.6212C47.64 23.401 47.0415 21.7478 47.0415 19.6618V12.1635C47.0415 11.6519 47.2168 11.2287 47.5675 10.8942C47.9182 10.5399 48.3618 10.3629 48.8984 10.3629C49.4349 10.3629 49.878 10.5399 50.2287 10.8942C50.58 11.2287 50.7553 11.6519 50.7553 12.1635V19.6618C50.7553 20.8622 51.0341 21.7577 51.5906 22.3481C52.1476 22.9189 52.9834 23.2041 54.0969 23.2041C55.2325 23.2041 56.0778 22.9189 56.6353 22.3481C57.1918 21.7577 57.4706 20.8622 57.4706 19.6618V12.1635C57.4706 11.6519 57.6459 11.2287 57.9966 10.8942C58.3473 10.5399 58.791 10.3629 59.3275 10.3629Z" fill="#81818B"/>
<path d="M72.3533 10.0676C74.0039 10.0676 75.2208 10.4514 76.0052 11.2189C76.789 11.9668 77.3051 12.9409 77.5524 14.1414L77.0263 13.8757L77.2741 13.4034C77.5214 12.9507 77.9031 12.4686 78.4191 11.9569C78.9347 11.4255 79.5537 10.9828 80.2756 10.6285C81.0184 10.2545 81.8437 10.0676 82.7514 10.0676C84.2372 10.0676 85.3612 10.3727 86.1246 10.9827C86.9089 11.5928 87.4449 12.4095 87.7337 13.4329C88.023 14.4366 88.1674 15.5584 88.1674 16.7982V24.3554C88.1674 24.8672 87.992 25.3 87.6408 25.6544C87.2901 25.989 86.847 26.1564 86.3104 26.1564C85.7744 26.1564 85.3302 25.989 84.9795 25.6544C84.6288 25.3 84.4535 24.8672 84.4535 24.3554V16.7982C84.4535 16.1488 84.3711 15.5683 84.2062 15.0565C84.0409 14.5251 83.7416 14.102 83.3085 13.7871C82.8753 13.4723 82.2564 13.3148 81.4521 13.3148C80.6677 13.3148 79.9973 13.4723 79.4403 13.7871C78.8827 14.102 78.4601 14.5251 78.1713 15.0565C77.9031 15.5683 77.7687 16.1488 77.7687 16.7982V24.3554C77.7687 24.8672 77.5933 25.3 77.2432 25.6544C76.8925 25.989 76.4483 26.1564 75.9123 26.1564C75.3757 26.1564 74.9321 25.989 74.5819 25.6544C74.2307 25.3 74.0553 24.8672 74.0553 24.3554V16.7982C74.0553 16.1488 73.9729 15.5683 73.8075 15.0565C73.6427 14.5251 73.3434 14.102 72.9103 13.7871C72.4772 13.4723 71.8577 13.3148 71.0534 13.3148C70.2696 13.3148 69.5991 13.4723 69.0416 13.7871C68.4851 14.102 68.0619 14.5251 67.7732 15.0565C67.5049 15.5683 67.371 16.1488 67.371 16.7982V24.3554C67.371 24.8672 67.1957 25.3 66.845 25.6544C66.4938 25.989 66.0507 26.1564 65.5141 26.1564C64.9776 26.1564 64.5345 25.989 64.1832 25.6544C63.8325 25.3 63.6572 24.8672 63.6572 24.3554V12.1635C63.6572 11.6519 63.8325 11.2287 64.1832 10.8942C64.5345 10.5399 64.9776 10.3628 65.5141 10.3628C66.0507 10.3628 66.4938 10.5399 66.845 10.8942C67.1957 11.2287 67.371 11.6519 67.371 12.1635V13.4329L66.9064 13.3444C67.0923 13.0098 67.3506 12.6555 67.6803 12.2816C68.0105 11.888 68.4126 11.5239 68.8872 11.1893C69.3618 10.8548 69.8879 10.5891 70.4654 10.3923C71.0434 10.1758 71.6729 10.0676 72.3533 10.0676Z" fill="#81818B"/>
<path d="M94.1361 24.3555C94.1361 24.8672 93.9607 25.3 93.6095 25.6544C93.2593 25.989 92.8157 26.1564 92.2791 26.1564C91.7431 26.1564 91.299 25.989 90.9483 25.6544C90.5981 25.3 90.4227 24.8672 90.4227 24.3555V12.1635C90.4227 11.6519 90.5981 11.2287 90.9483 10.8942C91.299 10.5399 91.7431 10.3628 92.2791 10.3628C92.8157 10.3628 93.2593 10.5399 93.6095 10.8942C93.9607 11.2287 94.1361 11.6519 94.1361 12.1635V24.3555ZM92.2482 8.44396C91.5468 8.44396 91.0517 8.33576 90.7624 8.11925C90.4742 7.90279 90.3298 7.51902 90.3298 6.96798V6.40707C90.3298 5.83639 90.4847 5.45256 90.7934 5.25579C91.1236 5.03928 91.6192 4.93103 92.2791 4.93103C93.0015 4.93103 93.5071 5.03928 93.7953 5.25579C94.0846 5.47225 94.229 5.85603 94.229 6.40707V6.96798C94.229 7.5387 94.0741 7.9323 93.7644 8.14875C93.4557 8.34558 92.9496 8.44396 92.2482 8.44396Z" fill="#81818B"/>
<path d="M105.256 10.0676C106.783 10.0676 107.938 10.3727 108.722 10.9827C109.527 11.5928 110.073 12.4095 110.362 13.4329C110.672 14.4366 110.826 15.5584 110.826 16.7982V24.3554C110.826 24.8672 110.651 25.3 110.3 25.6544C109.95 25.989 109.506 26.1564 108.969 26.1564C108.433 26.1564 107.99 25.989 107.639 25.6544C107.288 25.3 107.112 24.8672 107.112 24.3554V16.7982C107.112 16.1488 107.02 15.5683 106.835 15.0565C106.669 14.5251 106.36 14.102 105.906 13.7871C105.452 13.4723 104.802 13.3148 103.956 13.3148C103.131 13.3148 102.429 13.4723 101.852 13.7871C101.295 14.102 100.862 14.5251 100.552 15.0565C100.263 15.5683 100.118 16.1488 100.118 16.7982V24.3554C100.118 24.8672 99.9436 25.3 99.5929 25.6544C99.2422 25.989 98.7981 26.1564 98.262 26.1564C97.7255 26.1564 97.2819 25.989 96.9317 25.6544C96.5805 25.3 96.4051 24.8672 96.4051 24.3554V12.1635C96.4051 11.6519 96.5805 11.2287 96.9317 10.8942C97.2819 10.5399 97.7255 10.3628 98.262 10.3628C98.7981 10.3628 99.2422 10.5399 99.5929 10.8942C99.9436 11.2287 100.118 11.6519 100.118 12.1635V13.4329L99.6549 13.3444C99.8407 13.0098 100.108 12.6555 100.459 12.2816C100.81 11.888 101.223 11.5239 101.697 11.1893C102.172 10.8548 102.708 10.5891 103.306 10.3923C103.905 10.1758 104.555 10.0676 105.256 10.0676Z" fill="#81818B"/>
<path d="M129.2 18.2742C129.2 19.888 128.818 21.3149 128.055 22.5547C127.312 23.7749 126.301 24.7294 125.022 25.4181C123.763 26.1072 122.35 26.4512 120.782 26.4512C119.214 26.4512 117.79 26.1072 116.512 25.4181C115.253 24.7294 114.243 23.7749 113.479 22.5547C112.736 21.3149 112.365 19.888 112.365 18.2742C112.365 16.6605 112.736 15.2435 113.479 14.0233C114.243 12.7835 115.253 11.8191 116.512 11.1303C117.79 10.4218 119.214 10.0676 120.782 10.0676C122.35 10.0676 123.763 10.4218 125.022 11.1303C126.301 11.8191 127.312 12.7835 128.055 14.0233C128.818 15.2435 129.2 16.6605 129.2 18.2742ZM125.486 18.2742C125.486 17.2706 125.27 16.4046 124.836 15.6765C124.423 14.9286 123.856 14.3481 123.134 13.9348C122.433 13.5215 121.649 13.3148 120.782 13.3148C119.916 13.3148 119.121 13.5215 118.399 13.9348C117.698 14.3481 117.13 14.9286 116.697 15.6765C116.285 16.4046 116.078 17.2706 116.078 18.2742C116.078 19.2583 116.285 20.1242 116.697 20.8721C117.13 21.6002 117.698 22.1709 118.399 22.5842C119.121 22.9975 119.916 23.2041 120.782 23.2041C121.649 23.2041 122.433 22.9975 123.134 22.5842C123.856 22.1709 124.423 21.6002 124.836 20.8721C125.27 20.1242 125.486 19.2583 125.486 18.2742Z" fill="#81818B"/>
<path d="M143.041 10.3629C143.577 10.3629 144.021 10.5399 144.372 10.8942C144.722 11.2287 144.898 11.6519 144.898 12.1635V19.6618C144.898 21.7478 144.289 23.401 143.072 24.6212C141.854 25.8414 140.101 26.4512 137.811 26.4512C135.521 26.4512 133.767 25.8414 132.55 24.6212C131.353 23.401 130.755 21.7478 130.755 19.6618V12.1635C130.755 11.6519 130.93 11.2287 131.281 10.8942C131.632 10.5399 132.075 10.3629 132.612 10.3629C133.148 10.3629 133.592 10.5399 133.943 10.8942C134.293 11.2287 134.469 11.6519 134.469 12.1635V19.6618C134.469 20.8622 134.747 21.7577 135.304 22.3481C135.861 22.9189 136.697 23.2041 137.811 23.2041C138.945 23.2041 139.792 22.9189 140.348 22.3481C140.906 21.7577 141.184 20.8622 141.184 19.6618V12.1635C141.184 11.6519 141.36 11.2287 141.71 10.8942C142.061 10.5399 142.505 10.3629 143.041 10.3629Z" fill="#81818B"/>
<path d="M146.411 23.706C146.205 23.4305 146.112 23.0762 146.133 22.6433C146.154 22.2103 146.422 21.8364 146.938 21.5215C147.268 21.3247 147.618 21.246 147.99 21.2854C148.361 21.305 148.722 21.4821 149.073 21.8167C149.672 22.3874 150.301 22.8302 150.961 23.1451C151.621 23.46 152.446 23.6174 153.436 23.6174C153.746 23.5977 154.086 23.5584 154.458 23.4993C154.829 23.4206 155.149 23.2632 155.417 23.027C155.705 22.7712 155.85 22.3874 155.85 21.8757C155.85 21.4428 155.695 21.0983 155.386 20.8425C155.076 20.5867 154.664 20.3702 154.148 20.1931C153.653 20.016 153.096 19.8487 152.477 19.6912C151.837 19.5141 151.177 19.3173 150.496 19.1008C149.836 18.8844 149.227 18.6089 148.67 18.2742C148.114 17.92 147.66 17.4575 147.309 16.8868C146.958 16.3161 146.783 15.5977 146.783 14.7318C146.783 13.7478 147.071 12.9114 147.649 12.2226C148.227 11.5338 148.97 11.0024 149.877 10.6285C150.806 10.2545 151.775 10.0676 152.786 10.0676C153.426 10.0676 154.096 10.1463 154.798 10.3038C155.499 10.4415 156.17 10.6777 156.81 11.0123C157.449 11.3271 157.986 11.7503 158.419 12.2816C158.645 12.5768 158.78 12.931 158.821 13.3444C158.862 13.7576 158.666 14.1315 158.233 14.4661C157.924 14.7023 157.563 14.8105 157.15 14.7908C156.738 14.7515 156.397 14.6138 156.129 14.3776C155.778 13.9446 155.304 13.6002 154.705 13.3444C154.127 13.0885 153.457 12.9606 152.694 12.9606C152.384 12.9606 152.044 13 151.672 13.0787C151.322 13.1377 151.012 13.2854 150.744 13.5215C150.476 13.738 150.342 14.0922 150.342 14.5842C150.342 15.0369 150.496 15.4009 150.806 15.6765C151.115 15.9323 151.528 16.1488 152.044 16.3259C152.58 16.4834 153.148 16.6408 153.746 16.7982C154.365 16.9557 154.994 17.1426 155.634 17.3591C156.274 17.5757 156.861 17.8609 157.398 18.2152C157.934 18.5695 158.367 19.0319 158.697 19.6027C159.028 20.1537 159.192 20.8622 159.192 21.7281C159.192 22.7318 158.883 23.588 158.264 24.2964C157.645 25.0049 156.871 25.546 155.943 25.9201C155.015 26.2745 154.065 26.4512 153.096 26.4512C151.879 26.4512 150.662 26.2548 149.444 25.861C148.227 25.4476 147.216 24.7294 146.411 23.706Z" fill="#81818B"/>
</svg>
