<svg width="164" height="35" viewBox="0 0 164 35" fill="none" xmlns="http://www.w3.org/2000/svg">
<path d="M0.173889 23.1287L11.8335 18.0754L18.5445 21.8651L19.9002 34.2984L11.6301 34.2322L12.8503 25.5882L11.4267 24.7904L4.4445 30.1096L0.173889 23.1287Z" fill="#81818B"/>
<path d="M19.2906 21.3329L29.5945 28.7127L33.6616 21.5989L25.3913 18.341V16.7453L33.6616 13.4209L29.5945 6.37329L19.2906 13.7534V21.3329Z" fill="#81818B"/>
<path d="M18.5445 13.1553L19.9002 0.722168L11.6301 0.85515L12.8503 9.49844L11.4267 10.2963L4.37672 4.97735L0.173889 11.892L11.8335 16.945L18.5445 13.1553Z" fill="#81818B"/>
<path d="M61.2524 16.0202V27.6684H65.7034V12.8239H59.2217V16.0202H61.2524Z" fill="#81818B"/>
<path d="M61.1133 10.7381C61.5212 11.1534 62.1428 11.361 62.9771 11.361C63.8123 11.361 64.424 11.1534 64.813 10.7381C65.2214 10.3045 65.4251 9.76275 65.4251 9.1128C65.4251 8.44452 65.2214 7.90278 64.813 7.4875C64.424 7.05411 63.8123 6.83734 62.9771 6.83734C62.1428 6.83734 61.5212 7.05411 61.1133 7.4875C60.7243 7.90278 60.5295 8.44452 60.5295 9.1128C60.5295 9.76275 60.7243 10.3045 61.1133 10.7381Z" fill="#81818B"/>
<path d="M45.7576 27.3431C47.0186 27.9029 48.5669 28.183 50.4028 28.183C52.128 28.183 53.6111 27.9208 54.8543 27.3973C56.097 26.8738 57.0519 26.1422 57.7192 25.203C58.4059 24.2459 58.7487 23.1354 58.7487 21.8712C58.7487 20.6433 58.4248 19.6049 57.7754 18.7561C57.1443 17.8894 56.2639 17.2122 55.1325 16.7246C54.0012 16.2189 52.6934 15.9029 51.2097 15.7766L49.6521 15.6411C48.7249 15.5687 48.0571 15.3251 47.6492 14.9096C47.2407 14.4943 47.037 14.0067 47.037 13.447C47.037 13.0134 47.1489 12.6163 47.3704 12.2551C47.5935 11.8758 47.9269 11.5779 48.3721 11.3611C48.8362 11.1445 49.4016 11.0361 50.0694 11.0361C50.774 11.0361 51.3583 11.1624 51.8219 11.4154C51.9237 11.4688 52.0209 11.5259 52.1117 11.5866L52.1337 11.6016C52.1678 11.6245 52.2015 11.6483 52.234 11.6723C52.5159 11.8819 52.7401 12.1303 52.9071 12.4176C53.1475 12.815 53.2688 13.2572 53.2688 13.7449H57.7192C57.7192 12.4446 57.4131 11.3159 56.8015 10.3589C56.1899 9.38372 55.3089 8.63433 54.1592 8.11044C53.0273 7.56869 51.6644 7.29779 50.0694 7.29779C48.5485 7.29779 47.2318 7.55079 46.1188 8.05636C45.0063 8.54403 44.1348 9.24827 43.5043 10.1691C42.8916 11.0902 42.5856 12.1829 42.5856 13.447C42.5856 15.1986 43.1888 16.6071 44.3942 17.6727C45.5996 18.7382 47.2134 19.3522 49.2347 19.5146L50.7651 19.6501C52.0072 19.7585 52.9071 20.0023 53.4636 20.3814C54.0195 20.7426 54.2978 21.2392 54.2978 21.8712C54.2978 22.1617 54.249 22.4342 54.1513 22.6887C54.0789 22.8777 53.9791 23.0567 53.8531 23.2258C53.5554 23.6048 53.1202 23.9028 52.5453 24.1198C51.9704 24.3364 51.2565 24.4446 50.4028 24.4446C49.4573 24.4446 48.6876 24.3184 48.0944 24.0652C47.5006 23.7945 47.0559 23.4423 46.7583 23.0092C46.4805 22.5755 46.3419 22.1062 46.3419 21.6004H41.9183C41.9183 22.8826 42.2427 24.0205 42.8916 25.0133C43.5411 25.9887 44.496 26.7655 45.7576 27.3431Z" fill="#81818B"/>
<path d="M75.6348 27.8577C74.095 27.8577 72.8528 27.6774 71.9068 27.3158C70.9607 26.9369 70.2656 26.3136 69.8204 25.4469C69.3941 24.5618 69.1805 23.3703 69.1805 21.8712V15.9931H66.8715V12.8239H69.1805V8.81494H73.3253V12.8239H77.7768V15.9931H73.3253V22.034C73.3253 22.7382 73.5112 23.2799 73.8818 23.6589C74.2714 24.0204 74.8184 24.2008 75.5235 24.2008H77.7768V27.8577H75.6348Z" fill="#81818B"/>
<path fill-rule="evenodd" clip-rule="evenodd" d="M83.136 27.5329C84.1372 27.966 85.2875 28.183 86.5853 28.183C87.8647 28.183 88.9966 27.966 89.9794 27.5329C90.9622 27.0993 91.7786 26.4944 92.4275 25.7181C93.0764 24.9413 93.5126 24.0562 93.7347 23.0633H89.6455C89.4602 23.5148 89.1079 23.8938 88.5887 24.2008C88.0694 24.5077 87.4011 24.6617 86.5853 24.6617C86.0797 24.6617 85.6282 24.603 85.2302 24.4867C84.9273 24.3981 84.6559 24.2759 84.4154 24.1198C83.8589 23.7587 83.451 23.2527 83.1911 22.6028C83.1192 22.4176 83.0578 22.2239 83.0058 22.0222C82.9528 21.8178 82.9103 21.6052 82.8782 21.3838H94.013V19.921C94.013 18.5666 93.7163 17.3205 93.1231 16.1829C92.5293 15.027 91.6667 14.097 90.5359 13.3927C89.4229 12.6703 88.0505 12.3091 86.4183 12.3091C85.1756 12.3091 84.0626 12.526 83.0798 12.9594C82.1159 13.3746 81.309 13.9434 80.6601 14.6658C80.0112 15.3882 79.5104 16.21 79.157 17.131C78.8237 18.0337 78.6567 18.9818 78.6567 19.9751V20.5168C78.6567 21.4741 78.8237 22.4131 79.157 23.3341C79.5104 24.237 80.0112 25.0585 80.6601 25.799C81.3274 26.5217 82.1522 27.0993 83.136 27.5329ZM82.9549 18.7053C82.967 18.6479 82.9801 18.5914 82.9943 18.5359C83.0331 18.3827 83.0772 18.2359 83.1281 18.0957C83.1565 18.0158 83.1869 17.938 83.2195 17.8623C83.4972 17.1941 83.9057 16.6885 84.4433 16.3454C84.6443 16.2171 84.8622 16.1129 85.0958 16.0327C85.4896 15.898 85.9306 15.8307 86.4183 15.8307C87.179 15.8307 87.809 16.0023 88.3099 16.3454C88.8291 16.6704 89.2187 17.1489 89.4785 17.781C89.4995 17.832 89.5195 17.8839 89.5389 17.9365C89.5694 18.0202 89.5982 18.1061 89.6245 18.1942C89.6639 18.3253 89.698 18.461 89.7284 18.6013C89.7505 18.7046 89.7694 18.8104 89.7862 18.9188H82.9118C82.925 18.8464 82.9391 18.7753 82.9549 18.7053Z" fill="#81818B"/>
<path d="M95.8499 27.6684V12.8239H99.3832V16.5626C99.431 16.3403 99.4856 16.127 99.5465 15.9225C99.599 15.7501 99.6551 15.584 99.7166 15.4243C100.106 14.413 100.69 13.6547 101.469 13.1489C102.248 12.6252 103.203 12.3635 104.335 12.3635H104.529C105.68 12.3635 106.634 12.6252 107.395 13.1489C108.174 13.6547 108.758 14.413 109.147 15.4243L109.178 15.5007L109.204 15.5705C109.222 15.5212 109.24 15.4725 109.258 15.4243C109.666 14.413 110.26 13.6547 111.039 13.1489C111.818 12.6252 112.773 12.3635 113.905 12.3635H114.099C115.249 12.3635 116.213 12.6252 116.992 13.1489C117.79 13.6547 118.393 14.413 118.8 15.4243C119.208 16.4357 119.413 17.6998 119.413 19.2167V27.6684H114.962V18.9728C114.962 18.1602 114.739 17.5011 114.294 16.9955C113.867 16.4898 113.255 16.237 112.458 16.237C111.66 16.237 111.03 16.4989 110.566 17.0226C110.103 17.5281 109.871 18.2053 109.871 19.0542V27.6684H105.392V18.9728C105.392 18.1602 105.169 17.5011 104.724 16.9955C104.298 16.4898 103.694 16.237 102.916 16.237C102.1 16.237 101.46 16.4989 100.997 17.0226C100.533 17.5281 100.301 18.2053 100.301 19.0542V27.6684H95.8499Z" fill="#81818B"/>
<path fill-rule="evenodd" clip-rule="evenodd" d="M131.303 24.8079V27.6684H134.835V18.5665C134.835 17.194 134.557 16.0745 134.001 15.2075C133.444 14.3226 132.629 13.6636 131.553 13.2302C130.496 12.7968 129.188 12.58 127.63 12.58C127.293 12.58 126.94 12.5835 126.573 12.5907C126.356 12.5951 126.133 12.6005 125.906 12.6071C125.293 12.6252 124.7 12.6523 124.125 12.6884L123.686 12.7172C123.46 12.7325 123.249 12.7475 123.049 12.7628C122.9 12.7741 122.757 12.7855 122.623 12.7968V16.4538C123.198 16.4176 123.838 16.3814 124.543 16.3454C124.74 16.3353 124.935 16.3259 125.129 16.3172C125.409 16.3046 125.685 16.2937 125.959 16.2841C126.175 16.2764 126.389 16.2697 126.601 16.264C127.269 16.2459 127.807 16.237 128.215 16.237C129.03 16.237 129.624 16.4265 129.995 16.8058C130.366 17.1851 130.551 17.7539 130.551 18.5125V18.5665H127.797C126.444 18.5665 125.247 18.7382 124.208 19.0813C123.17 19.4063 122.363 19.9209 121.789 20.6252C121.213 21.3116 120.926 22.1964 120.926 23.2799C120.926 24.2732 121.158 25.131 121.621 25.8536C122.085 26.5574 122.725 27.0993 123.541 27.4783C124.376 27.8577 125.34 28.0474 126.434 28.0474C127.491 28.0474 128.382 27.8577 129.105 27.4783C129.847 27.0993 130.422 26.5574 130.83 25.8536C130.902 25.7346 130.968 25.6115 131.031 25.4836C131.119 25.3028 131.198 25.1126 131.267 24.9131L131.303 24.8079ZM130.551 22.1694V20.9774H127.769C126.99 20.9774 126.388 21.167 125.961 21.5463C125.553 21.9075 125.349 22.4041 125.349 23.0361C125.349 23.3336 125.4 23.6039 125.501 23.8477C125.604 24.092 125.757 24.309 125.961 24.4987C126.388 24.8603 126.99 25.0406 127.769 25.0406C127.917 25.0406 128.061 25.0334 128.199 25.0196C128.312 25.0079 128.422 24.9914 128.529 24.9703C128.732 24.9301 128.925 24.8719 129.105 24.7967C129.513 24.6164 129.847 24.3184 130.106 23.9027C130.366 23.4875 130.515 22.9094 130.551 22.1694Z" fill="#81818B"/>
<path d="M137.499 27.6684V12.8239H141.032V17.7235C141.202 16.3248 141.628 15.197 142.312 14.3408C143.24 13.2032 144.574 12.6343 146.318 12.6343H146.903V16.3724H145.79C144.566 16.3724 143.62 16.6974 142.952 17.3475C142.284 17.9796 141.95 18.9007 141.95 20.1104V27.6684H137.499Z" fill="#81818B"/>
<path d="M152.547 20.7336H154.021L158.834 27.6684H163.841L157.739 19.1517L162.756 12.8239H158.083L152.547 19.8821V7.89386H148.096V27.6684H152.547V20.7336Z" fill="#81818B"/>
</svg>
